<svg id="圖層_1" data-name="圖層 1" xmlns="http://www.w3.org/2000/svg" viewBox="0 0 60 60"><defs><style>.cls-1{fill:#3491cb;}.cls-2{fill:#fff;}</style></defs><title>工作區域 2 複本 2</title><circle class="cls-1" cx="30" cy="30" r="29.75"/><path class="cls-2" d="M23.11,23.79V20.67c-1.2.18-2.42.31-3.61.41l-.78-2.21A35.4,35.4,0,0,0,28.41,17L29.58,19a33.71,33.71,0,0,1-4.08,1.19v3.57h4.24V26.1H25.5v1Q27.69,29,30,31.43l-1.46,2.13c-1.17-1.66-2.16-3-3-4v11H23.11V30.05a25.69,25.69,0,0,1-4,6L18,33.35a19.71,19.71,0,0,0,5.07-7.12V26.1H18.77V23.79ZM41,39.75h-2.4v-1.9H32.91v2.21H30.55V18.4H41Zm-2.4-4.24V20.72H32.91V35.51Z"/></svg>