<svg id="圖層_1" data-name="圖層 1" xmlns="http://www.w3.org/2000/svg" viewBox="0 0 60 60"><defs><style>.cls-1{fill:#747fa7;}.cls-2{fill:#fff;}</style></defs><title>工作區域 2 複本 4</title><circle class="cls-1" cx="30" cy="30" r="29.75"/><path class="cls-2" d="M26,20.74a23.74,23.74,0,0,0-2.29-3l2.05-1A24.33,24.33,0,0,1,28.26,20l-1.56.78H32a26,26,0,0,0,2.13-4.13l2.39.86a20.18,20.18,0,0,1-1.95,3.27h4.74V31.9h-8V34h10.4v2.34H31.22V41H28.78V36.29H18.38V34h10.4V31.9h-8V20.74Zm2.78,4.5V22.9H23.14v2.34Zm0,2.08H23.14v2.39h5.64Zm2.44-2.08h5.65V22.9H31.22Zm5.65,2.08H31.22v2.39h5.65Z"/></svg>