<svg id="圖層_1" data-name="圖層 1" xmlns="http://www.w3.org/2000/svg" viewBox="0 0 60 60"><defs><style>.cls-1{fill:#747fa7;}.cls-2{fill:#fff;}</style></defs><title>工作區域 2 複本</title><circle class="cls-1" cx="30" cy="30" r="29.75"/><path class="cls-2" d="M24.62,24.25q-1.8,7.7-4.73,11.76l-2.16-1.9a28.34,28.34,0,0,0,4.42-10.84Zm.13,16.31L24.15,38c1.25.11,2.39.18,3.48.18a1.35,1.35,0,0,0,1.51-1.53V17.23h2.58V37.28c0,2.18-1.07,3.28-3.15,3.28Zm17.39-6-2.23,1.54c-1.1-3.62-2.55-7.65-4.37-12.12l2.26-1.4C39.67,27.19,41.13,31.17,42.14,34.6Z"/></svg>