<svg id="圖層_1" data-name="圖層 1" xmlns="http://www.w3.org/2000/svg" viewBox="0 0 60 60"><defs><style>.cls-1{fill:#f78d2a;}.cls-2{fill:#fff;}</style></defs><title>工作區域 2 複本 3</title><circle class="cls-1" cx="30" cy="30" r="29.75"/><path class="cls-2" d="M24.75,27.58a33.34,33.34,0,0,0,1.35-7H18.77V18.2h9.72v1.87a32.59,32.59,0,0,1-1.95,10c1.12,1.56,2.13,3.1,3.07,4.63L27.69,36.6c-.68-1.24-1.46-2.52-2.34-3.82A24.61,24.61,0,0,1,19.73,40L18,38.09a23,23,0,0,0,5.64-7.7c-1.45-2-3.07-4.06-4.89-6.16l1.77-1.72C22.07,24.2,23.45,25.89,24.75,27.58Zm16-9.38v2.18A29.48,29.48,0,0,1,36.63,32,38.8,38.8,0,0,0,42,38.53l-1.74,2a41.85,41.85,0,0,1-5.1-6.37,44.1,44.1,0,0,1-5.62,6.37l-1.69-2a34.88,34.88,0,0,0,6-6.61,27.08,27.08,0,0,1-3.3-11.36h-.75V18.2ZM35.28,29.56a28,28,0,0,0,3.14-9H32.73A24,24,0,0,0,35.28,29.56Z"/></svg>